<mxfile host="app.diagrams.net" modified="2024-04-24T19:43:55.577Z" agent="Mozilla/5.0 (Macintosh; Intel Mac OS X 10_15_7) AppleWebKit/537.36 (KHTML, like Gecko) Chrome/124.0.0.0 Safari/537.36" etag="4nc4PzGU5A5u8HuLufFD" version="24.2.8" type="github">
  <diagram name="Page-1" id="MiuqBWBxcRIXdq53bum4">
    <mxGraphModel dx="1242" dy="785" grid="1" gridSize="10" guides="1" tooltips="1" connect="1" arrows="1" fold="1" page="1" pageScale="1" pageWidth="1100" pageHeight="850" math="0" shadow="0">
      <root>
        <mxCell id="0" />
        <mxCell id="1" parent="0" />
        <mxCell id="zrqau_7-6FMA3GG0B9cJ-8" value="" style="edgeStyle=orthogonalEdgeStyle;rounded=0;orthogonalLoop=1;jettySize=auto;html=1;" edge="1" parent="1" source="zrqau_7-6FMA3GG0B9cJ-1" target="zrqau_7-6FMA3GG0B9cJ-7">
          <mxGeometry relative="1" as="geometry" />
        </mxCell>
        <mxCell id="zrqau_7-6FMA3GG0B9cJ-1" value="&lt;font face=&quot;Tahoma&quot;&gt;Process of Explanation&lt;/font&gt;" style="rounded=1;whiteSpace=wrap;html=1;fontSize=18;fillColor=#e1d5e7;strokeColor=#9673a6;" vertex="1" parent="1">
          <mxGeometry x="200" y="200" width="120" height="60" as="geometry" />
        </mxCell>
        <mxCell id="zrqau_7-6FMA3GG0B9cJ-16" style="edgeStyle=orthogonalEdgeStyle;rounded=0;orthogonalLoop=1;jettySize=auto;html=1;" edge="1" parent="1" source="zrqau_7-6FMA3GG0B9cJ-2" target="zrqau_7-6FMA3GG0B9cJ-1">
          <mxGeometry relative="1" as="geometry">
            <Array as="points">
              <mxPoint x="630" y="300" />
              <mxPoint x="260" y="300" />
            </Array>
          </mxGeometry>
        </mxCell>
        <mxCell id="zrqau_7-6FMA3GG0B9cJ-17" value="&lt;font style=&quot;font-size: 18px;&quot; face=&quot;Tahoma&quot;&gt;Analogical Reasoning&lt;/font&gt;" style="edgeLabel;html=1;align=center;verticalAlign=middle;resizable=0;points=[];" vertex="1" connectable="0" parent="zrqau_7-6FMA3GG0B9cJ-16">
          <mxGeometry x="0.0889" y="-2" relative="1" as="geometry">
            <mxPoint x="-5" as="offset" />
          </mxGeometry>
        </mxCell>
        <mxCell id="zrqau_7-6FMA3GG0B9cJ-2" value="Knowledge Corpus" style="whiteSpace=wrap;html=1;fontSize=18;fillColor=#e1d5e7;strokeColor=#9673a6;rounded=1;" vertex="1" parent="1">
          <mxGeometry x="570" y="200" width="120" height="60" as="geometry" />
        </mxCell>
        <mxCell id="zrqau_7-6FMA3GG0B9cJ-9" style="edgeStyle=orthogonalEdgeStyle;rounded=0;orthogonalLoop=1;jettySize=auto;html=1;" edge="1" parent="1" source="zrqau_7-6FMA3GG0B9cJ-7" target="zrqau_7-6FMA3GG0B9cJ-2">
          <mxGeometry relative="1" as="geometry" />
        </mxCell>
        <mxCell id="zrqau_7-6FMA3GG0B9cJ-10" value="&lt;font style=&quot;font-size: 18px;&quot; face=&quot;Tahoma&quot;&gt;Output&lt;/font&gt;" style="edgeStyle=orthogonalEdgeStyle;rounded=0;orthogonalLoop=1;jettySize=auto;html=1;" edge="1" parent="1" source="zrqau_7-6FMA3GG0B9cJ-7">
          <mxGeometry x="1" y="-20" relative="1" as="geometry">
            <mxPoint x="420" y="170" as="targetPoint" />
            <mxPoint x="-20" y="-19" as="offset" />
          </mxGeometry>
        </mxCell>
        <mxCell id="zrqau_7-6FMA3GG0B9cJ-7" value="&lt;span style=&quot;color: rgb(0, 0, 0); font-family: Helvetica; font-size: 18px; font-style: normal; font-variant-ligatures: normal; font-variant-caps: normal; font-weight: 400; letter-spacing: normal; orphans: 2; text-align: center; text-indent: 0px; text-transform: none; widows: 2; word-spacing: 0px; -webkit-text-stroke-width: 0px; white-space: normal; text-decoration-thickness: initial; text-decoration-style: initial; text-decoration-color: initial; float: none; display: inline !important;&quot;&gt;Explanation Product&lt;/span&gt;" style="whiteSpace=wrap;html=1;fontSize=18;fillColor=#e1d5e7;strokeColor=#9673a6;rounded=1;" vertex="1" parent="1">
          <mxGeometry x="360" y="200" width="120" height="60" as="geometry" />
        </mxCell>
        <mxCell id="zrqau_7-6FMA3GG0B9cJ-11" value="" style="endArrow=none;dashed=1;html=1;dashPattern=1 3;strokeWidth=4;rounded=0;" edge="1" parent="1">
          <mxGeometry width="50" height="50" relative="1" as="geometry">
            <mxPoint x="520" y="340" as="sourcePoint" />
            <mxPoint x="520" y="80" as="targetPoint" />
          </mxGeometry>
        </mxCell>
        <mxCell id="zrqau_7-6FMA3GG0B9cJ-14" value="&lt;font style=&quot;font-size: 18px;&quot; face=&quot;Tahoma&quot;&gt;Learning&lt;/font&gt;" style="text;html=1;align=center;verticalAlign=middle;whiteSpace=wrap;rounded=0;" vertex="1" parent="1">
          <mxGeometry x="550" y="80" width="60" height="30" as="geometry" />
        </mxCell>
        <mxCell id="zrqau_7-6FMA3GG0B9cJ-15" value="&lt;font style=&quot;font-size: 18px;&quot; face=&quot;Tahoma&quot;&gt;Performance&lt;/font&gt;" style="text;html=1;align=center;verticalAlign=middle;whiteSpace=wrap;rounded=0;" vertex="1" parent="1">
          <mxGeometry x="420" y="80" width="60" height="30" as="geometry" />
        </mxCell>
        <mxCell id="zrqau_7-6FMA3GG0B9cJ-19" value="" style="curved=1;endArrow=classic;html=1;rounded=0;" edge="1" parent="1" source="zrqau_7-6FMA3GG0B9cJ-2" target="zrqau_7-6FMA3GG0B9cJ-2">
          <mxGeometry width="50" height="50" relative="1" as="geometry">
            <mxPoint x="520" y="370" as="sourcePoint" />
            <mxPoint x="570" y="320" as="targetPoint" />
            <Array as="points">
              <mxPoint x="720" y="200" />
              <mxPoint x="720" y="250" />
            </Array>
          </mxGeometry>
        </mxCell>
        <mxCell id="zrqau_7-6FMA3GG0B9cJ-20" value="&lt;font style=&quot;font-size: 18px;&quot; face=&quot;Tahoma&quot;&gt;Schema Induction&lt;/font&gt;" style="edgeLabel;html=1;align=center;verticalAlign=middle;resizable=0;points=[];" vertex="1" connectable="0" parent="zrqau_7-6FMA3GG0B9cJ-19">
          <mxGeometry x="0.0821" y="-4" relative="1" as="geometry">
            <mxPoint x="84" y="1" as="offset" />
          </mxGeometry>
        </mxCell>
        <mxCell id="zrqau_7-6FMA3GG0B9cJ-21" value="&lt;font style=&quot;font-size: 18px;&quot; face=&quot;Tahoma&quot;&gt;Input&lt;/font&gt;" style="edgeStyle=orthogonalEdgeStyle;rounded=0;orthogonalLoop=1;jettySize=auto;html=1;endArrow=none;endFill=0;startArrow=classic;startFill=1;" edge="1" parent="1" source="zrqau_7-6FMA3GG0B9cJ-1">
          <mxGeometry x="1" y="-20" relative="1" as="geometry">
            <mxPoint x="260" y="172" as="targetPoint" />
            <mxPoint x="260" y="202" as="sourcePoint" />
            <mxPoint x="-20" y="-19" as="offset" />
          </mxGeometry>
        </mxCell>
      </root>
    </mxGraphModel>
  </diagram>
</mxfile>
